Cantarell-Regular.ufo
<glyph name="hyphen" format="1">
  <advance width="460"/>
  <unicode hex="002D"/>
  <outline>
    <contour>
      <point x="375" y="220" type="line"/>
      <point x="375" y="287" type="line"/>
      <point x="85" y="287" type="line"/>
      <point x="85" y="220" type="line"/>
    </contour>
  </outline>
</glyph>
<glyph name="A" format="1">
  <advance width="699"/>
  <unicode hex="0041"/>
  <note>
    A
  </note>
  <outline>
    <contour>
      <point x="130" y="0" type="line"/>
      <point x="357" y="636" type="line"/>
      <point x="348" y="636" type="line"/>
      <point x="562" y="0" type="line"/>
      <point x="655" y="0" type="line"/>
      <point x="411" y="694" type="line"/>
      <point x="303" y="694" type="line"/>
      <point x="43" y="0" type="line"/>
    </contour>
    <contour>
      <point x="521" y="206" type="line"/>
      <point x="521" y="278" type="line"/>
      <point x="174" y="278" type="line"/>
      <point x="174" y="206" type="line"/>
    </contour>
    <contour>
      <point x="633" y="10" type="move" name="ogonek"/>
    </contour>
    <contour>
      <point x="350" y="0" type="move" name="bottom"/>
    </contour>
    <contour>
      <point x="350" y="694" type="move" name="top"/>
    </contour>
  </outline>
</glyph>
<glyph name="G" format="1">
  <advance width="744"/>
  <unicode hex="0047"/>
  <note>
    G
  </note>
  <outline>
    <contour>
      <point x="511" y="-9"/>
      <point x="598" y="19"/>
      <point x="668" y="74" type="curve"/>
      <point x="668" y="368" type="line"/>
      <point x="388" y="368" type="line"/>
      <point x="388" y="296" type="line"/>
      <point x="585" y="296" type="line"/>
      <point x="585" y="71" type="line"/>
      <point x="604" y="112" type="line"/>
      <point x="550" y="81"/>
      <point x="489" y="64"/>
      <point x="427" y="64" type="curve" smooth="yes"/>
      <point x="260" y="64"/>
      <point x="152" y="179"/>
      <point x="152" y="357" type="curve" smooth="yes"/>
      <point x="152" y="530"/>
      <point x="251" y="630"/>
      <point x="420" y="630" type="curve" smooth="yes"/>
      <point x="483" y="630"/>
      <point x="556" y="616"/>
      <point x="617" y="593" type="curve"/>
      <point x="641" y="657" type="line"/>
      <point x="580" y="687"/>
      <point x="507" y="703"/>
      <point x="431" y="703" type="curve" smooth="yes"/>
      <point x="212" y="703"/>
      <point x="67" y="560"/>
      <point x="67" y="342" type="curve" smooth="yes"/>
      <point x="67" y="130"/>
      <point x="205" y="-9"/>
      <point x="415" y="-9" type="curve" smooth="yes"/>
    </contour>
    <contour>
      <point x="406" y="694" type="move" name="top"/>
    </contour>
    <contour>
      <point x="406" y="0" type="move" name="bottom"/>
    </contour>
  </outline>
</glyph>
<glyph name="K" format="1">
  <advance width="631"/>
  <unicode hex="004B"/>
  <note>
    K
  </note>
  <outline>
    <contour>
      <point x="608" y="0" type="line"/>
      <point x="275" y="380" type="line"/>
      <point x="278" y="358" type="line"/>
      <point x="593" y="694" type="line"/>
      <point x="492" y="694" type="line"/>
      <point x="186" y="361" type="line"/>
      <point x="498" y="0" type="line"/>
    </contour>
    <contour>
      <point x="189" y="0" type="line"/>
      <point x="189" y="694" type="line"/>
      <point x="106" y="694" type="line"/>
      <point x="106" y="0" type="line"/>
    </contour>
    <contour>
      <point x="320" y="694" type="move" name="top"/>
    </contour>
    <contour>
      <point x="320" y="0" type="move" name="bottom"/>
    </contour>
  </outline>
</glyph>
<glyph name="M" format="1">
  <advance width="887"/>
  <unicode hex="004D"/>
  <note>
    M
  </note>
  <outline>
    <contour>
      <point x="185" y="0" type="line"/>
      <point x="185" y="578" type="line"/>
      <point x="168" y="578" type="line"/>
      <point x="410" y="108" type="line"/>
      <point x="475" y="108" type="line"/>
      <point x="714" y="578" type="line"/>
      <point x="702" y="578" type="line"/>
      <point x="702" y="0" type="line"/>
      <point x="781" y="0" type="line"/>
      <point x="781" y="694" type="line"/>
      <point x="699" y="694" type="line"/>
      <point x="420" y="148" type="line"/>
      <point x="470" y="148" type="line"/>
      <point x="191" y="694" type="line"/>
      <point x="106" y="694" type="line"/>
      <point x="106" y="0" type="line"/>
    </contour>
    <contour>
      <point x="444" y="694" type="move" name="top"/>
    </contour>
    <contour>
      <point x="444" y="0" type="move" name="bottom"/>
    </contour>
  </outline>
</glyph>
<glyph name="P" format="1">
  <advance width="624"/>
  <unicode hex="0050"/>
  <note>
    P
  </note>
  <outline>
    <contour>
      <point x="189" y="0" type="line"/>
      <point x="189" y="694" type="line"/>
      <point x="106" y="694" type="line"/>
      <point x="106" y="0" type="line"/>
    </contour>
    <contour>
      <point x="307" y="242" type="line" smooth="yes"/>
      <point x="462" y="242"/>
      <point x="566" y="334"/>
      <point x="566" y="473" type="curve" smooth="yes"/>
      <point x="566" y="606"/>
      <point x="468" y="694"/>
      <point x="322" y="694" type="curve" smooth="yes"/>
      <point x="159" y="694" type="line"/>
      <point x="159" y="622" type="line"/>
      <point x="312" y="622" type="line" smooth="yes"/>
      <point x="413" y="622"/>
      <point x="481" y="556"/>
      <point x="481" y="458" type="curve" smooth="yes"/>
      <point x="481" y="364"/>
      <point x="425" y="314"/>
      <point x="322" y="314" type="curve" smooth="yes"/>
      <point x="159" y="314" type="line"/>
      <point x="159" y="242" type="line"/>
    </contour>
    <contour>
      <point x="307" y="694" type="move" name="top"/>
    </contour>
    <contour>
      <point x="307" y="0" type="move" name="bottom"/>
    </contour>
  </outline>
</glyph>
<glyph name="n" format="1">
  <advance width="570"/>
  <unicode hex="006E"/>
  <note>
    n
  </note>
  <outline>
    <contour>
      <point x="165" y="0" type="line"/>
      <point x="165" y="426" type="line"/>
      <point x="141" y="482" type="line"/>
      <point x="85" y="482" type="line"/>
      <point x="85" y="0" type="line"/>
    </contour>
    <contour>
      <point x="494" y="0" type="line"/>
      <point x="494" y="316" type="line" smooth="yes"/>
      <point x="494" y="423"/>
      <point x="423" y="492"/>
      <point x="315" y="492" type="curve" smooth="yes"/>
      <point x="245" y="492"/>
      <point x="176" y="462"/>
      <point x="125" y="409" type="curve"/>
      <point x="144" y="358" type="line"/>
      <point x="184" y="399"/>
      <point x="237" y="422"/>
      <point x="293" y="422" type="curve" smooth="yes"/>
      <point x="371" y="422"/>
      <point x="414" y="378"/>
      <point x="414" y="300" type="curve" smooth="yes"/>
      <point x="414" y="0" type="line"/>
    </contour>
    <contour>
      <point x="288" y="482" type="move" name="top"/>
    </contour>
    <contour>
      <point x="288" y="0" type="move" name="bottom"/>
    </contour>
  </outline>
</glyph>
<glyph name="uni00B5" format="1">
  <advance width="644"/>
  <unicode hex="00B5"/>
  <outline>
    <contour>
      <point x="382" y="-10"/>
      <point x="430" y="14"/>
      <point x="486" y="73" type="curve"/>
      <point x="467" y="134" type="line"/>
      <point x="427" y="82"/>
      <point x="386" y="60"/>
      <point x="334" y="60" type="curve" smooth="yes"/>
      <point x="257" y="60"/>
      <point x="202" y="108"/>
      <point x="202" y="182" type="curve"/>
      <point x="162" y="166" type="line"/>
      <point x="162" y="60"/>
      <point x="227" y="-10"/>
      <point x="325" y="-10" type="curve" smooth="yes"/>
    </contour>
    <contour>
      <point x="202" y="-217" type="line"/>
      <point x="202" y="482" type="line"/>
      <point x="127" y="482" type="line"/>
      <point x="127" y="-217" type="line"/>
    </contour>
    <contour>
      <point x="536" y="0" type="line"/>
      <point x="536" y="482" type="line"/>
      <point x="456" y="482" type="line"/>
      <point x="456" y="56" type="line"/>
      <point x="480" y="0" type="line"/>
    </contour>
  </outline>
</glyph>
<glyph name="alpha" format="1">
  <advance width="589"/>
  <unicode hex="03B1"/>
  <outline>
    <contour>
      <point x="332" y="-10"/>
      <point x="412" y="34"/>
      <point x="450" y="103" type="curve"/>
      <point x="416" y="136" type="line"/>
      <point x="385" y="93"/>
      <point x="334" y="60"/>
      <point x="279" y="60" type="curve" smooth="yes"/>
      <point x="189" y="60"/>
      <point x="134" y="119"/>
      <point x="134" y="233" type="curve" smooth="yes"/>
      <point x="134" y="344"/>
      <point x="188" y="422"/>
      <point x="279" y="422" type="curve" smooth="yes"/>
      <point x="340" y="422"/>
      <point x="385" y="393"/>
      <point x="414" y="337" type="curve"/>
      <point x="451" y="381" type="line"/>
      <point x="413" y="457"/>
      <point x="357" y="492"/>
      <point x="277" y="492" type="curve" smooth="yes"/>
      <point x="144" y="492"/>
      <point x="54" y="380"/>
      <point x="54" y="223" type="curve" smooth="yes"/>
      <point x="54" y="72"/>
      <point x="137" y="-10"/>
      <point x="253" y="-10" type="curve" smooth="yes"/>
    </contour>
    <contour>
      <point x="530" y="-6"/>
      <point x="558" y="2"/>
      <point x="577" y="11" type="curve"/>
      <point x="561" y="66" type="line"/>
      <point x="549" y="61"/>
      <point x="540" y="58"/>
      <point x="528" y="58" type="curve" smooth="yes"/>
      <point x="494" y="58"/>
      <point x="481" y="83"/>
      <point x="481" y="127" type="curve" smooth="yes"/>
      <point x="481" y="149"/>
      <point x="482" y="170"/>
      <point x="484" y="205" type="curve" smooth="yes"/>
      <point x="500" y="482" type="line"/>
      <point x="442" y="482" type="line"/>
      <point x="417" y="416" type="line"/>
      <point x="404" y="198" type="line" smooth="yes"/>
      <point x="402" y="165"/>
      <point x="401" y="142"/>
      <point x="401" y="114" type="curve" smooth="yes"/>
      <point x="401" y="51"/>
      <point x="438" y="-6"/>
      <point x="504" y="-6" type="curve" smooth="yes"/>
    </contour>
  </outline>
</glyph>
<glyph name="epsilon" format="1">
  <advance width="495"/>
  <unicode hex="03B5"/>
  <outline>
    <contour>
      <point x="329" y="-7"/>
      <point x="391" y="5"/>
      <point x="445" y="30" type="curve"/>
      <point x="425" y="96" type="line"/>
      <point x="380" y="78"/>
      <point x="313" y="66"/>
      <point x="263" y="66" type="curve" smooth="yes"/>
      <point x="185" y="66"/>
      <point x="138" y="97"/>
      <point x="138" y="144" type="curve" smooth="yes"/>
      <point x="138" y="195"/>
      <point x="188" y="214"/>
      <point x="277" y="214" type="curve" smooth="yes"/>
      <point x="345" y="214" type="line"/>
      <point x="345" y="281" type="line"/>
      <point x="285" y="281" type="line" smooth="yes"/>
      <point x="197" y="281"/>
      <point x="150" y="311"/>
      <point x="150" y="356" type="curve" smooth="yes"/>
      <point x="150" y="397"/>
      <point x="188" y="420"/>
      <point x="263" y="420" type="curve" smooth="yes"/>
      <point x="309" y="420"/>
      <point x="353" y="411"/>
      <point x="405" y="394" type="curve"/>
      <point x="423" y="457" type="line"/>
      <point x="369" y="482"/>
      <point x="313" y="492"/>
      <point x="254" y="492" type="curve" smooth="yes"/>
      <point x="141" y="492"/>
      <point x="67" y="433"/>
      <point x="67" y="355" type="curve" smooth="yes"/>
      <point x="67" y="291"/>
      <point x="132" y="244"/>
      <point x="216" y="241" type="curve"/>
      <point x="221" y="249" type="line"/>
      <point x="121" y="249"/>
      <point x="53" y="201"/>
      <point x="53" y="126" type="curve" smooth="yes"/>
      <point x="53" y="42"/>
      <point x="139" y="-7"/>
      <point x="267" y="-7" type="curve" smooth="yes"/>
    </contour>
    <contour>
      <point x="240" y="482" type="move" name="top"/>
    </contour>
    <contour>
      <point x="240" y="0" type="move" name="bottom"/>
    </contour>
  </outline>
</glyph>
<glyph name="tau" format="1">
  <advance width="473"/>
  <unicode hex="03C4"/>
  <outline>
    <contour>
      <point x="453" y="415" type="line"/>
      <point x="453" y="482" type="line"/>
      <point x="18" y="482" type="line"/>
      <point x="18" y="415" type="line"/>
    </contour>
    <contour>
      <point x="320" y="-6"/>
      <point x="351" y="0"/>
      <point x="370" y="10" type="curve"/>
      <point x="352" y="66" type="line"/>
      <point x="340" y="61"/>
      <point x="329" y="58"/>
      <point x="317" y="58" type="curve" smooth="yes"/>
      <point x="283" y="58"/>
      <point x="265" y="81"/>
      <point x="265" y="118" type="curve" smooth="yes"/>
      <point x="265" y="460" type="line"/>
      <point x="185" y="460" type="line"/>
      <point x="185" y="108" type="line" smooth="yes"/>
      <point x="185" y="39"/>
      <point x="228" y="-6"/>
      <point x="294" y="-6" type="curve" smooth="yes"/>
    </contour>
    <contour>
      <point x="235" y="482" type="move" name="top"/>
    </contour>
    <contour>
      <point x="275" y="0" type="move" name="bottom"/>
    </contour>
  </outline>
</glyph>
<glyph name="uni0416" format="1">
  <advance width="980"/>
  <unicode hex="0416"/>
  <outline>
    <contour>
      <point x="946" y="0" type="line"/>
      <point x="710" y="376" type="line"/>
      <point x="711" y="356" type="line"/>
      <point x="933" y="694" type="line"/>
      <point x="838" y="694" type="line"/>
      <point x="620" y="361" type="line"/>
      <point x="847" y="0" type="line"/>
    </contour>
    <contour>
      <point x="129" y="0" type="line"/>
      <point x="360" y="363" type="line"/>
      <point x="146" y="694" type="line"/>
      <point x="47" y="694" type="line"/>
      <point x="272" y="349" type="line"/>
      <point x="270" y="368" type="line"/>
      <point x="34" y="0" type="line"/>
    </contour>
    <contour>
      <point x="672" y="323" type="line"/>
      <point x="672" y="395" type="line"/>
      <point x="292" y="395" type="line"/>
      <point x="292" y="323" type="line"/>
    </contour>
    <contour>
      <point x="532" y="0" type="line"/>
      <point x="532" y="694" type="line"/>
      <point x="449" y="694" type="line"/>
      <point x="449" y="0" type="line"/>
    </contour>
    <contour>
      <point x="491" y="694" type="move" name="top"/>
    </contour>
    <contour>
      <point x="910" y="0" type="move" name="bottomright"/>
    </contour>
  </outline>
</glyph>
<glyph name="uni0423" format="1">
  <advance width="645"/>
  <unicode hex="0423"/>
  <outline>
    <contour>
      <point x="256" y="0" type="line"/>
      <point x="615" y="694" type="line"/>
      <point x="531" y="694" type="line"/>
      <point x="335" y="301" type="line"/>
      <point x="306" y="256" type="line"/>
      <point x="168" y="0" type="line"/>
    </contour>
    <contour>
      <point x="363" y="279" type="line"/>
      <point x="129" y="694" type="line"/>
      <point x="29" y="694" type="line"/>
      <point x="325" y="199" type="line"/>
    </contour>
    <contour>
      <point x="323" y="694" type="move" name="top"/>
    </contour>
  </outline>
</glyph>
<glyph name="uni0436" format="1">
  <advance width="80"/>
  <unicode hex="0436"/>
  <outline>
    <contour>
      <point x="746" y="0" type="line"/>
      <point x="572" y="266" type="line"/>
      <point x="573" y="250" type="line"/>
      <point x="737" y="482" type="line"/>
      <point x="646" y="482" type="line"/>
      <point x="487" y="253" type="line"/>
      <point x="653" y="0" type="line"/>
    </contour>
    <contour>
      <point x="108" y="0" type="line"/>
      <point x="278" y="253" type="line"/>
      <point x="122" y="482" type="line"/>
      <point x="29" y="482" type="line"/>
      <point x="195" y="240" type="line"/>
      <point x="193" y="255" type="line"/>
      <point x="18" y="0" type="line"/>
    </contour>
    <contour>
      <point x="522" y="219" type="line"/>
      <point x="522" y="286" type="line"/>
      <point x="233" y="286" type="line"/>
      <point x="233" y="219" type="line"/>
    </contour>
    <contour>
      <point x="423" y="0" type="line"/>
      <point x="423" y="482" type="line"/>
      <point x="343" y="482" type="line"/>
      <point x="343" y="0" type="line"/>
    </contour>
    <contour>
      <point x="383" y="482" type="move" name="top"/>
    </contour>
    <contour>
      <point x="702" y="0" type="move" name="bottomright"/>
    </contour>
  </outline>
</glyph>
<glyph name="uni044D" format="1">
  <advance width="74"/>
  <unicode hex="044D"/>
  <outline>
    <contour>
      <point x="347" y="-7"/>
      <point x="438" y="89"/>
      <point x="438" y="247" type="curve" smooth="yes"/>
      <point x="438" y="400"/>
      <point x="353" y="492"/>
      <point x="211" y="492" type="curve" smooth="yes"/>
      <point x="162" y="492"/>
      <point x="86" y="480"/>
      <point x="44" y="460" type="curve"/>
      <point x="62" y="401" type="line"/>
      <point x="94" y="414"/>
      <point x="158" y="422"/>
      <point x="192" y="422" type="curve" smooth="yes"/>
      <point x="298" y="422"/>
      <point x="359" y="354"/>
      <point x="359" y="235" type="curve" smooth="yes"/>
      <point x="359" y="122"/>
      <point x="304" y="63"/>
      <point x="201" y="63" type="curve" smooth="yes"/>
      <point x="164" y="63"/>
      <point x="98" y="71"/>
      <point x="62" y="84" type="curve"/>
      <point x="40" y="23" type="line"/>
      <point x="85" y="2"/>
      <point x="153" y="-7"/>
      <point x="198" y="-7" type="curve" smooth="yes"/>
    </contour>
    <contour>
      <point x="380" y="219" type="line"/>
      <point x="380" y="284" type="line"/>
      <point x="96" y="284" type="line"/>
      <point x="96" y="219" type="line"/>
    </contour>
    <contour>
      <point x="245" y="482" type="move" name="top"/>
    </contour>
  </outline>
</glyph>
<glyph name="uni20BA" format="1">
  <advance width="658"/>
  <unicode hex="20BA"/>
  <outline>
    <contour>
      <point x="441" y="0"/>
      <point x="577" y="132"/>
      <point x="577" y="330" type="curve"/>
      <point x="497" y="330" type="line"/>
      <point x="497" y="174"/>
      <point x="397" y="70"/>
      <point x="246" y="70" type="curve"/>
      <point x="236" y="0" type="line"/>
    </contour>
    <contour>
      <point x="246" y="0" type="line"/>
      <point x="246" y="694" type="line"/>
      <point x="169" y="694" type="line"/>
      <point x="169" y="0" type="line"/>
    </contour>
    <contour>
      <point x="410" y="571" type="line"/>
      <point x="382" y="625" type="line"/>
      <point x="79" y="446" type="line"/>
      <point x="105" y="393" type="line"/>
    </contour>
    <contour>
      <point x="410" y="421" type="line"/>
      <point x="382" y="475" type="line"/>
      <point x="94" y="305" type="line"/>
      <point x="120" y="252" type="line"/>
    </contour>
  </outline>
</glyph>
<glyph name="estimated" format="1">
  <advance width="861"/>
  <unicode hex="212E"/>
  <outline>
    <contour>
      <point x="565" y="-10"/>
      <point x="689" y="42"/>
      <point x="761" y="119" type="curve"/>
      <point x="695" y="119" type="line"/>
      <point x="623" y="62"/>
      <point x="531" y="36"/>
      <point x="442" y="36" type="curve" smooth="yes"/>
      <point x="320" y="36"/>
      <point x="246" y="84"/>
      <point x="199" y="145" type="curve"/>
      <point x="199" y="315" type="line"/>
      <point x="782" y="315" type="line"/>
      <point x="782" y="545"/>
      <point x="665" y="704"/>
      <point x="437" y="704" type="curve" smooth="yes"/>
      <point x="206" y="704"/>
      <point x="88" y="541"/>
      <point x="88" y="339" type="curve" smooth="yes"/>
      <point x="88" y="123"/>
      <point x="224" y="-10"/>
      <point x="434" y="-10" type="curve" smooth="yes"/>
    </contour>
    <contour>
      <point x="199" y="535" type="line"/>
      <point x="245" y="619"/>
      <point x="320" y="662"/>
      <point x="434" y="662" type="curve" smooth="yes"/>
      <point x="548" y="662"/>
      <point x="622" y="619"/>
      <point x="668" y="535" type="curve"/>
      <point x="668" y="358" type="line"/>
      <point x="199" y="358" type="line"/>
    </contour>
  </outline>
</glyph>
<glyph name="descenderreversed-cy" format="1">
  <advance width="267"/>
  <outline>
    <contour>
      <point x="125" y="-120" type="line"/>
      <point x="125" y="0" type="line"/>
      <point x="182" y="0" type="line"/>
      <point x="182" y="72" type="line"/>
      <point x="50" y="72" type="line"/>
      <point x="50" y="-120" type="line"/>
    </contour>
    <contour>
      <point x="207" y="0" type="move" name="_bottomright"/>
    </contour>
  </outline>
</glyph>
<glyph name="four.dnom" format="1">
  <advance width="74"/>
  <note>
    four
  </note>
  <outline>
    <contour>
      <point x="351" y="-5" type="line"/>
      <point x="351" y="472" type="line"/>
      <point x="281" y="472" type="line"/>
      <point x="31" y="142" type="line"/>
      <point x="31" y="103" type="line"/>
      <point x="442" y="103" type="line"/>
      <point x="442" y="166" type="line"/>
      <point x="88" y="166" type="line"/>
      <point x="97" y="145" type="line"/>
      <point x="284" y="393" type="line"/>
      <point x="279" y="402" type="line"/>
      <point x="279" y="-5" type="line"/>
    </contour>
  </outline>
</glyph>
<glyph name="hookabovecomb.loclVIET" format="1">
  <advance width="0"/>
  <outline>
    <contour>
      <point x="209" y="592"/>
      <point x="248" y="637"/>
      <point x="248" y="680" type="curve" smooth="yes"/>
      <point x="248" y="723"/>
      <point x="211" y="752"/>
      <point x="151" y="752" type="curve" smooth="yes"/>
      <point x="120" y="752"/>
      <point x="76" y="744"/>
      <point x="40" y="727" type="curve"/>
      <point x="59" y="675" type="line"/>
      <point x="87" y="685"/>
      <point x="115" y="692"/>
      <point x="135" y="692" type="curve" smooth="yes"/>
      <point x="162" y="692"/>
      <point x="181" y="679"/>
      <point x="181" y="662" type="curve" smooth="yes"/>
      <point x="181" y="642"/>
      <point x="157" y="618"/>
      <point x="121" y="604" type="curve"/>
      <point x="136" y="564" type="line"/>
    </contour>
    <contour>
      <point x="144" y="742" type="move" name="top"/>
    </contour>
    <contour>
      <point x="134" y="482" type="move" name="_top"/>
    </contour>
  </outline>
</glyph>
<glyph name="two.dnom" format="1">
  <advance width="74"/>
  <note>
    two
  </note>
  <outline>
    <contour>
      <point x="379" y="0" type="line"/>
      <point x="379" y="65" type="line"/>
      <point x="132" y="65" type="line"/>
      <point x="135" y="47" type="line"/>
      <point x="298" y="180"/>
      <point x="360" y="259"/>
      <point x="360" y="341" type="curve" smooth="yes"/>
      <point x="360" y="425"/>
      <point x="297" y="479"/>
      <point x="196" y="479" type="curve" smooth="yes"/>
      <point x="135" y="479"/>
      <point x="78" y="459"/>
      <point x="38" y="424" type="curve"/>
      <point x="59" y="371" type="line"/>
      <point x="97" y="398"/>
      <point x="140" y="413"/>
      <point x="182" y="413" type="curve" smooth="yes"/>
      <point x="243" y="413"/>
      <point x="283" y="380"/>
      <point x="283" y="329" type="curve" smooth="yes"/>
      <point x="283" y="265"/>
      <point x="220" y="195"/>
      <point x="49" y="51" type="curve"/>
      <point x="49" y="0" type="line"/>
    </contour>
  </outline>
</glyph>
<glyph name="uni0302.case" format="1">
  <advance width="388"/>
  <outline>
    <component base="uni0302" yOffset="195"/>
    <contour>
      <point x="188" y="852" type="move" name="top"/>
    </contour>
    <contour>
      <point x="355" y="779" type="move" name="top_viet"/>
    </contour>
    <contour>
      <point x="188" y="694" type="move" name="_top"/>
    </contour>
  </outline>
</glyph>
<glyph name="uni0302.loclVIET" format="1">
  <advance width="0"/>
  <outline>
    <contour>
      <point x="80" y="536" type="line"/>
      <point x="190" y="610" type="line"/>
      <point x="299" y="536" type="line"/>
      <point x="343" y="578" type="line"/>
      <point x="216" y="680" type="line"/>
      <point x="173" y="680" type="line"/>
      <point x="45" y="564" type="line"/>
    </contour>
    <contour>
      <point x="192" y="580" type="move" name="top"/>
    </contour>
    <contour>
      <point x="321" y="563" type="move" name="top_viet"/>
    </contour>
    <contour>
      <point x="191" y="482" type="move" name="_top"/>
    </contour>
  </outline>
</glyph>
<glyph name="uni0308.case" format="1">
  <advance width="472"/>
  <outline>
    <component base="uni0308" yOffset="182"/>
    <contour>
      <point x="236" y="856" type="move" name="top"/>
    </contour>
    <contour>
      <point x="236" y="694" type="move" name="_top"/>
    </contour>
  </outline>
</glyph>
<glyph name="uni030C.loclVIET" format="1">
  <advance width="0"/>
  <outline>
    <contour>
      <point x="303" y="688" type="line"/>
      <point x="191" y="609" type="line"/>
      <point x="84" y="686" type="line"/>
      <point x="39" y="641" type="line"/>
      <point x="165" y="541" type="line"/>
      <point x="208" y="541" type="line"/>
      <point x="334" y="660" type="line"/>
    </contour>
    <contour>
      <point x="184" y="627" type="move" name="top"/>
    </contour>
    <contour>
      <point x="184" y="482" type="move" name="_top"/>
    </contour>
  </outline>
</glyph>
<glyph name="uni030F.case" format="1">
  <advance width="475"/>
  <outline>
    <contour>
      <point x="395" y="800" type="line"/>
      <point x="286" y="939" type="line"/>
      <point x="226" y="885" type="line"/>
      <point x="356" y="764" type="line"/>
    </contour>
    <contour>
      <point x="205" y="800" type="line"/>
      <point x="96" y="939" type="line"/>
      <point x="36" y="885" type="line"/>
      <point x="166" y="764" type="line"/>
    </contour>
    <contour>
      <point x="221" y="926" type="move" name="top"/>
    </contour>
    <contour>
      <point x="221" y="694" type="move" name="_top"/>
    </contour>
  </outline>
</glyph>
